<?xml version="1.0" encoding="utf-8"?>
<!DOCTYPE svg PUBLIC "-//W3C//DTD SVG 1.1//EN" "http://www.w3.org/Graphics/SVG/1.1/DTD/svg11.dtd">
<svg version="1.1" xmlns="http://www.w3.org/2000/svg" xmlns:xlink="http://www.w3.org/1999/xlink" width="32" height="32" viewBox="0 0 32 32">
<path d="M9.44 12.96l-2.24 2.24 7.2 7.2 16-16-2.24-2.24-13.76 13.76-4.96-4.96zM28.8 16c0 7.040-5.76 12.8-12.8 12.8s-12.8-5.76-12.8-12.8c0-7.040 5.76-12.8 12.8-12.8 1.28 0 2.4 0.16 3.52 0.48l2.56-2.56c-1.92-0.64-4-1.12-6.080-1.12-8.8 0-16 7.2-16 16s7.2 16 16 16c8.8 0 16-7.2 16-16h-3.2z"></path>
</svg>
