<?xml version="1.0" encoding="utf-8"?>
<!DOCTYPE svg PUBLIC "-//W3C//DTD SVG 1.1//EN" "http://www.w3.org/Graphics/SVG/1.1/DTD/svg11.dtd">
<svg version="1.1" xmlns="http://www.w3.org/2000/svg" xmlns:xlink="http://www.w3.org/1999/xlink" width="32" height="32" viewBox="0 0 32 32">
<path d="M30.902 4.385c0.455 0.455 0.455 1.201 0 1.657l-9.129 9.12c-0.455 0.454-0.455 1.201 0 1.658l9.124 9.123c0.455 0.455 0.455 1.201 0 1.658l-3.324 3.312c-0.457 0.454-1.204 0.454-1.661 0l-9.121-9.121c-0.455-0.455-1.204-0.455-1.66 0l-9.129 9.116c-0.455 0.455-1.204 0.455-1.66 0l-3.319-3.316c-0.455-0.455-0.455-1.201 0-1.658l9.132-9.119c0.455-0.454 0.455-1.201 0-1.658l-9.124-9.124c-0.457-0.455-0.457-1.203 0-1.658l3.322-3.313c0.458-0.454 1.204-0.454 1.661 0.001l9.12 9.12c0.457 0.457 1.204 0.457 1.66 0.001l9.129-9.116c0.454-0.454 1.201-0.454 1.66 0l3.319 3.318z"></path>
</svg>
