<?xml version="1.0" encoding="utf-8"?>
<!DOCTYPE svg PUBLIC "-//W3C//DTD SVG 1.1//EN" "http://www.w3.org/Graphics/SVG/1.1/DTD/svg11.dtd">
<svg version="1.1" xmlns="http://www.w3.org/2000/svg" xmlns:xlink="http://www.w3.org/1999/xlink" width="32" height="32" viewBox="0 0 32 32">
<path d="M4.242 18c-1.106 0-2 0.896-2 2s0.894 2 2 2h2.93l-6.586 6.586c-0.782 0.782-0.782 2.046 0 2.828 0.39 0.39 0.902 0.586 1.414 0.586s1.024-0.196 1.414-0.586l6.828-6.828v3.414c0 1.104 0.894 2 2 2s1.758-0.896 1.758-2v-10h-9.758zM6 14c1.104 0 2-0.896 2-2v-4h4c1.106 0 2-0.896 2-2s-0.894-2-2-2h-7.998l-0.002 8c0 1.104 0.894 2 2 2zM26 18c-1.106 0-2 0.896-2 2v4h-4c-1.106 0-2 0.896-2 2s0.894 2 2 2h8v-8c0-1.104-0.894-2-2-2zM28.586 0.586l-6.586 6.586v-3.172c0-1.104-0.894-2-2-2s-2 0.896-2 2v10h10c1.104 0 2-0.896 2-2s-0.894-2-2-2h-3.172l6.586-6.584c0.782-0.782 0.782-2.046 0-2.828s-2.046-0.784-2.828-0.002z"></path>
</svg>
